<?xml version="1.0" encoding="utf-8"?>
<!-- Generator: Adobe Illustrator 18.0.0, SVG Export Plug-In . SVG Version: 6.00 Build 0)  -->
<!DOCTYPE svg PUBLIC "-//W3C//DTD SVG 1.1//EN" "http://www.w3.org/Graphics/SVG/1.1/DTD/svg11.dtd">
<svg version="1.1" id="图层_1" xmlns="http://www.w3.org/2000/svg" xmlns:xlink="http://www.w3.org/1999/xlink" x="0px" y="0px"
	 viewBox="0 0 750 366" enable-background="new 0 0 750 366" xml:space="preserve">
<g>
	<g>
		<polygon fill-rule="evenodd" clip-rule="evenodd" fill="#FFFFFF" points="0,0 52.1,0 52.1,26.5 42.1,26.5 29.7,42.6 29.7,52.1 
			0,52.1 		"/>
		<polygon fill-rule="evenodd" clip-rule="evenodd" fill="#FFFFFF" points="282.7,0 471,0 471,26.5 456.5,26.5 442,42.6 314.6,42.6 
			293.8,26.5 282.7,26.5 		"/>
		<polygon fill-rule="evenodd" clip-rule="evenodd" fill="#FFFFFF" points="697.9,0 750,0 750,52.1 720.4,52.1 720.4,42.6 
			707.8,26.5 697.9,26.5 		"/>
		<polygon fill-rule="evenodd" clip-rule="evenodd" fill="#FFFFFF" points="0,148 29.7,148 29.7,171.9 45.1,193.6 45.1,271.8 
			103.7,330.4 125.2,330.4 125.2,366 0,366 		"/>
		<polygon fill-rule="evenodd" clip-rule="evenodd" fill="#FFFFFF" points="720.4,148 750,148 750,366 624.8,366 624.8,330.4 
			641.2,330.4 706.7,271.8 706.7,193.6 720.4,171.9 		"/>
	</g>
	<g>
		
			<polygon fill-rule="evenodd" clip-rule="evenodd" fill="none" stroke="#ECEDED" stroke-width="0.5669" stroke-miterlimit="22.9256" points="
			29.7,42.6 42.1,26.5 293.8,26.5 314.6,42.6 442,42.6 456.5,26.5 707.8,26.5 720.4,42.6 720.4,171.9 706.7,193.6 706.7,271.8 
			641.2,330.4 103.7,330.4 45.1,271.8 45.1,193.6 29.7,171.9 		"/>
		
			<polygon fill-rule="evenodd" clip-rule="evenodd" fill="none" stroke="#D5EDFA" stroke-width="0.5669" stroke-miterlimit="22.9256" points="
			34.7,44.3 34.7,170.3 50.1,192 50.1,269.7 105.8,325.4 639.3,325.4 701.7,269.5 701.7,192.1 715.4,170.4 715.4,44.3 705.4,31.5 
			458.7,31.5 444.2,47.6 312.9,47.6 292.1,31.5 44.5,31.5 		"/>
	</g>
</g>
</svg>
